<svg width="18" height="23" viewBox="0 0 18 23" fill="none" xmlns="http://www.w3.org/2000/svg">
<g clip-path="url(#clip0_6791_763)">
<path d="M9.89535 2.41478C11.3408 0.509654 13.3503 0.500366 13.3503 0.500366C13.3503 0.500366 13.6492 2.29151 12.2132 4.01695C10.68 5.85935 8.93722 5.55787 8.93722 5.55787C8.93722 5.55787 8.60998 4.10889 9.89535 2.41478ZM9.12106 6.81256C9.86467 6.81256 11.2448 5.79039 13.0411 5.79039C16.1333 5.79039 17.3498 7.99067 17.3498 7.99067C17.3498 7.99067 14.9706 9.20709 14.9706 12.1587C14.9706 15.4883 17.9344 16.6358 17.9344 16.6358C17.9344 16.6358 15.8626 22.4672 13.0642 22.4672C11.7789 22.4672 10.7796 21.601 9.42536 21.601C8.04526 21.601 6.67572 22.4995 5.78373 22.4995C3.22834 22.4996 0 16.9679 0 12.5214C0 8.14661 2.73258 5.85168 5.29563 5.85168C6.96184 5.85168 8.25484 6.81256 9.12106 6.81256Z" fill="white"/>
</g>
<defs>
<clipPath id="clip0_6791_763">
<rect width="17.9344" height="22" fill="white" transform="translate(0 0.5)"/>
</clipPath>
</defs>
</svg>
