<svg width="18" height="18" viewBox="0 0 18 18" fill="none" xmlns="http://www.w3.org/2000/svg">
<g id="arrow circle up right" clip-path="url(#clip0_10007_2899)">
<path id="Vector" fill-rule="evenodd" clip-rule="evenodd" d="M6.1509 6.38823C6.1509 5.96672 6.49363 5.625 6.91637 5.625H11.4136L11.4302 5.62571C11.9406 5.6478 12.3498 6.05419 12.3741 6.56295L12.375 6.58107V11.0163C12.375 11.4379 12.0323 11.7796 11.6095 11.7796C11.1867 11.7796 10.8441 11.4379 10.8441 11.0163V8.2506L6.93174 12.1515C6.63279 12.4495 6.14815 12.4495 5.84921 12.1515C5.55026 11.8534 5.55026 11.3701 5.84921 11.072L9.78133 7.15145H6.91637C6.49363 7.15145 6.1509 6.80973 6.1509 6.38823Z" fill="#7A2FF4"/>
<path id="Vector_2" fill-rule="evenodd" clip-rule="evenodd" d="M9 1.5C4.85785 1.5 1.5 4.85785 1.5 9C1.5 13.1421 4.85785 16.5 9 16.5C13.1421 16.5 16.5 13.1421 16.5 9C16.5 4.85785 13.1421 1.5 9 1.5ZM9 0C4.02945 0 0 4.02945 0 9C0 13.9706 4.02945 18 9 18C13.9706 18 18 13.9706 18 9C18 4.02945 13.9706 0 9 0Z" fill="#7A2FF4"/>
</g>
<defs>
<clipPath id="clip0_10007_2899">
<rect width="18" height="18" fill="white"/>
</clipPath>
</defs>
</svg>
