    <svg
                    xmlns="http://www.w3.org/2000/svg"
                    width="13"
                    height="12"
                    viewBox="0 0 13 12"
                    fill="none"
                  >
                    <g clipPath="url(#clip0_7516_3253)">
                      <path
                        d="M4.64583 6.17526H8.35406C8.47922 6.17526 8.58068 6.0738 8.58068 5.94864V4.74965C8.57949 4.09738 8.13679 3.52867 7.50473 3.36754C8.07775 2.81266 8.09243 1.89828 7.53755 1.32529C6.98266 0.752298 6.06829 0.737593 5.4953 1.29248C4.92231 1.84736 4.9076 2.76173 5.46248 3.33472C5.47323 3.34583 5.48417 3.35677 5.4953 3.36754C4.86318 3.52865 4.4204 4.09735 4.41921 4.74965V5.94864C4.41918 6.0738 4.52067 6.17526 4.64583 6.17526ZM6.5 1.34927C7.04472 1.35185 7.48424 1.79552 7.48166 2.34027C7.47909 2.88501 7.03542 3.32451 6.49067 3.32193C5.94775 3.31935 5.509 2.87853 5.509 2.33561C5.51094 1.78984 5.95426 1.34861 6.5 1.34927ZM4.87246 4.74965C4.87304 4.21169 5.30904 3.77571 5.84701 3.77521H7.15285C7.69079 3.77579 8.12671 4.21171 8.12729 4.74965V5.72201H6.49988H4.87246V4.74965ZM3.58541 8.30607C4.15442 7.74952 4.16455 6.83709 3.60801 6.26806C3.05147 5.69902 2.13903 5.68894 1.57 6.24546C1.2932 6.5162 1.13699 6.88693 1.13654 7.27412C1.13654 7.39928 1.23801 7.50074 1.36317 7.50074C1.48834 7.50074 1.5898 7.39928 1.5898 7.27412C1.58925 6.72887 2.03079 6.28642 2.57603 6.28586C3.12128 6.28531 3.56373 6.72685 3.56429 7.27209C3.56484 7.81734 3.1233 8.2598 2.57805 8.26035C2.2308 8.26071 1.90889 8.07858 1.73031 7.78076C1.66565 7.67348 1.52625 7.63892 1.41897 7.70358C1.31169 7.76824 1.27713 7.90764 1.34179 8.01492C1.40648 8.12178 1.48485 8.21975 1.5749 8.30632C0.943396 8.46781 0.501191 9.03621 0.5 9.68807V10.8874C0.500083 11.0126 0.601489 11.114 0.726627 11.1141H4.43471C4.55988 11.1141 4.66134 11.0126 4.66134 10.8874V9.68821C4.6602 9.0359 4.21747 8.46723 3.58541 8.30607ZM4.20809 10.6607H0.953144V9.68821C0.953781 9.15027 1.38976 8.71435 1.92769 8.71377H3.23365C3.77153 8.71441 4.20742 9.1503 4.20809 9.68821V10.6607ZM11.285 10.8873C11.285 11.0125 11.1835 11.1139 11.0583 11.1139H11.026C10.9008 11.1139 10.7993 11.0125 10.7993 10.8873C10.7993 10.7621 10.9008 10.6607 11.026 10.6607H11.0583C11.1834 10.6606 11.2849 10.7622 11.285 10.8873ZM11.4239 8.30607C11.9968 7.75119 12.0115 6.8369 11.4566 6.26399C10.9016 5.69108 9.98738 5.67646 9.41447 6.23137C8.84157 6.78627 8.82697 7.70054 9.38186 8.27345C9.39254 8.2845 9.40343 8.29538 9.41447 8.30607C8.78242 8.46721 8.33968 9.0359 8.33852 9.68818V10.8874C8.33852 11.0126 8.43998 11.114 8.56515 11.114H10.3244C10.4496 11.114 10.551 11.0126 10.551 10.8874C10.551 10.7622 10.4496 10.6608 10.3244 10.6608H8.79178V9.68818C8.79241 9.1503 9.2283 8.71441 9.76621 8.71374H11.0722C11.6101 8.71432 12.0461 9.15022 12.0467 9.68818V10.6606H11.9001C11.775 10.6606 11.6735 10.7621 11.6735 10.8873C11.6735 11.0124 11.775 11.1139 11.9001 11.1139H12.2734C12.3985 11.1138 12.4999 11.0124 12.5 10.8873V9.68815C12.4988 9.03588 12.056 8.46718 11.4239 8.30607ZM10.4192 6.28794C10.9639 6.29043 11.4035 6.73408 11.401 7.2788C11.3985 7.82354 10.9549 8.26309 10.4102 8.2606C9.86715 8.25811 9.42829 7.81717 9.42835 7.27414C9.43032 6.72848 9.87354 6.28736 10.4192 6.28794ZM2.35406 5.11135V4.77607C2.35478 4.11344 2.89171 3.57644 3.55434 3.57564H3.7543C3.87947 3.57564 3.98093 3.6771 3.98093 3.80227C3.98093 3.92743 3.87947 4.02889 3.7543 4.02889H3.55434C3.14194 4.02939 2.80775 4.36363 2.80734 4.77604V5.11133C2.80734 5.23649 2.70588 5.33795 2.58071 5.33795C2.45552 5.33801 2.35406 5.23652 2.35406 5.11135ZM7.80455 9.83661C7.80463 9.96172 7.70325 10.0632 7.57817 10.0632H5.42964C5.30448 10.0632 5.20301 9.96177 5.20301 9.83661C5.20301 9.71144 5.30448 9.60998 5.42964 9.60998H7.57792C7.70308 9.60998 7.80455 9.71144 7.80455 9.83661ZM9.03668 3.80229C9.03668 3.67713 9.13814 3.57567 9.26331 3.57567H9.44513C10.1078 3.57644 10.6447 4.11346 10.6454 4.77609V5.11138C10.6454 5.23655 10.544 5.33801 10.4188 5.33801C10.2936 5.33801 10.1922 5.23655 10.1922 5.11138V4.77609C10.1917 4.36368 9.85757 4.02945 9.44516 4.02895H9.26383C9.13867 4.02923 9.03696 3.92746 9.03668 3.80229Z"
                        fill="white"
                      />
                    </g>
                    <defs>
                      <clipPath id="clip0_7516_3253">
                        <rect
                          width="12"
                          height="12"
                          fill="white"
                          transform="translate(0.5)"
                        />
                      </clipPath>
                    </defs>
                  </svg>