<svg width="24" height="24" viewBox="0 0 24 24" fill="none" xmlns="http://www.w3.org/2000/svg">
<path d="M3.51035 1.28875L12.0323 4.66667V23L3.56454 19.2737C3.39661 19.2048 3.25298 19.0862 3.15231 18.9334C3.05165 18.7805 2.99859 18.6005 3.00003 18.4167V1.91667C3.00003 1.67355 3.09519 1.44039 3.26458 1.26849C3.43396 1.09658 3.6637 1 3.90325 1H16.0968C16.3363 1 16.5661 1.09658 16.7355 1.26849C16.9048 1.44039 17 1.67355 17 1.91667V18.4167C17 18.6598 16.9048 18.8929 16.7355 19.0648C16.5661 19.2368 16.3363 19.3333 16.0968 19.3333H12.0323" stroke="white" stroke-linecap="round" stroke-linejoin="round"/>
<path d="M10 13H8" stroke="white" stroke-linecap="round" stroke-linejoin="round"/>
<path d="M20 12L22 10L20 8" stroke="white" stroke-linecap="round" stroke-linejoin="round"/>
<path d="M22 10H17" stroke="white" stroke-linecap="round" stroke-linejoin="round"/>
</svg>
