<svg width="18" height="19" viewBox="0 0 18 19" fill="none" xmlns="http://www.w3.org/2000/svg">
<path d="M15.1876 16.25C15.1137 16.2501 15.0405 16.2356 14.9723 16.2073C14.904 16.179 14.8421 16.1375 14.79 16.0851L2.41495 3.71011C2.31392 3.60376 2.25842 3.46215 2.2603 3.31548C2.26218 3.1688 2.32128 3.02866 2.42501 2.92493C2.52873 2.8212 2.66887 2.7621 2.81555 2.76022C2.96223 2.75835 3.10384 2.81384 3.21019 2.91488L15.5852 15.2899C15.6638 15.3685 15.7173 15.4687 15.739 15.5778C15.7607 15.6869 15.7496 15.8 15.707 15.9027C15.6645 16.0055 15.5924 16.0933 15.4999 16.1551C15.4075 16.2169 15.2988 16.2499 15.1876 16.25ZM8.71882 11.6041L6.89808 9.78335C6.88765 9.77301 6.87423 9.76619 6.85973 9.76386C6.84522 9.76153 6.83035 9.7638 6.8172 9.77035C6.80405 9.77691 6.79328 9.78742 6.78641 9.80041C6.77954 9.8134 6.77692 9.82821 6.7789 9.84277C6.85241 10.3151 7.0742 10.7519 7.41224 11.0899C7.75027 11.428 8.18704 11.6498 8.65941 11.7233C8.67396 11.7253 8.68878 11.7226 8.70177 11.7158C8.71476 11.7089 8.72527 11.6981 8.73182 11.685C8.73838 11.6718 8.74065 11.657 8.73832 11.6424C8.73598 11.6279 8.72917 11.6145 8.71882 11.6041ZM9.28132 7.39589L11.1049 9.21874C11.1153 9.22924 11.1287 9.23618 11.1433 9.2386C11.1579 9.24101 11.1729 9.23877 11.1861 9.23219C11.1993 9.22561 11.2101 9.21503 11.217 9.20195C11.2239 9.18887 11.2265 9.17396 11.2244 9.15933C11.1511 8.68632 10.9291 8.24892 10.5907 7.91046C10.2522 7.57199 9.8148 7.35003 9.34179 7.27671C9.32714 7.27445 9.31215 7.27688 9.29897 7.28365C9.28578 7.29041 9.27507 7.30117 9.26836 7.31439C9.26166 7.32761 9.2593 7.3426 9.26163 7.35724C9.26395 7.37188 9.27085 7.38541 9.28132 7.39589Z" fill="white"/>
<path d="M17.2617 10.1103C17.3781 9.92763 17.4396 9.71539 17.439 9.49878C17.4384 9.28217 17.3756 9.07029 17.2582 8.88828C16.328 7.44969 15.1211 6.22766 13.7682 5.35402C12.2695 4.38652 10.6172 3.875 8.98875 3.875C8.13027 3.87618 7.27763 4.01615 6.46383 4.28949C6.44105 4.29707 6.42059 4.31035 6.4044 4.32807C6.38821 4.34579 6.37682 4.36736 6.37132 4.39072C6.36582 4.41409 6.3664 4.43847 6.37299 4.46155C6.37958 4.48463 6.39197 4.50564 6.40898 4.52258L8.06976 6.18336C8.08702 6.20064 8.10847 6.21314 8.13202 6.21961C8.15557 6.22608 8.1804 6.22631 8.20406 6.22027C8.767 6.08309 9.35578 6.09314 9.91371 6.24946C10.4716 6.40579 10.9799 6.70312 11.3896 7.11282C11.7993 7.52253 12.0967 8.03082 12.253 8.58875C12.4093 9.14668 12.4194 9.73546 12.2822 10.2984C12.2762 10.322 12.2765 10.3468 12.2829 10.3702C12.2894 10.3937 12.3019 10.4151 12.3191 10.4323L14.708 12.823C14.7328 12.8479 14.7661 12.8625 14.8012 12.8641C14.8364 12.8657 14.8708 12.854 14.8978 12.8314C15.8174 12.0476 16.6142 11.1304 17.2617 10.1103ZM9 12.875C8.48909 12.875 7.98484 12.7591 7.52527 12.5358C7.0657 12.3126 6.66281 11.988 6.34697 11.5864C6.03113 11.1848 5.81058 10.7168 5.70196 10.2175C5.59334 9.7183 5.59948 9.20093 5.71992 8.70441C5.72589 8.6808 5.72563 8.65604 5.71916 8.63256C5.71269 8.60908 5.70023 8.58769 5.68301 8.57047L3.33316 6.21957C3.30825 6.19462 3.27487 6.17995 3.23964 6.17845C3.20441 6.17695 3.16991 6.18874 3.14297 6.21148C2.28551 6.94309 1.49062 7.83324 0.763943 8.87352C0.636743 9.05608 0.566688 9.27235 0.562682 9.49482C0.558676 9.7173 0.620898 9.93594 0.741443 10.123C1.66992 11.576 2.86453 12.7998 4.1966 13.6614C5.69742 14.6328 7.30969 15.125 8.98875 15.125C9.85589 15.1227 10.7174 14.9857 11.5425 14.7189C11.5655 14.7116 11.5862 14.6985 11.6026 14.6808C11.6191 14.6632 11.6307 14.6416 11.6364 14.6181C11.6421 14.5947 11.6416 14.5702 11.6351 14.5469C11.6286 14.5237 11.6162 14.5026 11.5991 14.4855L9.93023 12.817C9.91301 12.7998 9.89162 12.7873 9.86814 12.7808C9.84466 12.7744 9.8199 12.7741 9.79629 12.7801C9.53557 12.8433 9.26826 12.8751 9 12.875Z" fill="white"/>
</svg>
