<svg width="18" height="18" viewBox="0 0 18 18" fill="none" xmlns="http://www.w3.org/2000/svg">
<path d="M9 11.25C10.2426 11.25 11.25 10.2426 11.25 9C11.25 7.75736 10.2426 6.75 9 6.75C7.75736 6.75 6.75 7.75736 6.75 9C6.75 10.2426 7.75736 11.25 9 11.25Z" fill="white"/>
<path d="M17.2561 8.38828C16.3258 6.94969 15.1189 5.72766 13.7661 4.85402C12.2695 3.88652 10.6172 3.375 8.98802 3.375C7.49317 3.375 6.02329 3.80215 4.61915 4.64449C3.18723 5.50336 1.88997 6.75809 0.763211 8.37352C0.63601 8.55608 0.565956 8.77235 0.56195 8.99482C0.557943 9.2173 0.620166 9.43594 0.740711 9.62297C1.66919 11.076 2.86415 12.2998 4.19587 13.1614C5.69528 14.1328 7.30895 14.625 8.98802 14.625C10.6302 14.625 12.286 14.1177 13.7763 13.1583C15.1284 12.2875 16.3329 11.0609 17.2596 9.61031C17.376 9.42763 17.4375 9.21539 17.4369 8.99878C17.4363 8.78217 17.3735 8.57029 17.2561 8.38828ZM8.99997 12.375C8.33246 12.375 7.67993 12.1771 7.12492 11.8062C6.5699 11.4354 6.13732 10.9083 5.88188 10.2916C5.62643 9.67486 5.55959 8.99626 5.68982 8.34157C5.82004 7.68688 6.14148 7.08552 6.61348 6.61351C7.08549 6.14151 7.68685 5.82008 8.34154 5.68985C8.99623 5.55962 9.67483 5.62646 10.2915 5.88191C10.9082 6.13735 11.4353 6.56993 11.8062 7.12495C12.177 7.67997 12.375 8.33249 12.375 9C12.3739 9.89479 12.018 10.7526 11.3853 11.3854C10.7526 12.0181 9.89476 12.374 8.99997 12.375Z" fill="white"/>
</svg>
