<svg width="24" height="24" viewBox="0 0 24 24" fill="none" xmlns="http://www.w3.org/2000/svg">
<path d="M22.6666 11.6857C22.6597 11.5565 22.6077 11.434 22.5198 11.3398C22.432 11.2456 22.3139 11.1858 22.1866 11.1711L20.8717 10.9563C20.8126 10.9465 20.7581 10.9176 20.7166 10.8741C20.675 10.8305 20.6484 10.7745 20.6409 10.7145C20.6158 10.5514 20.5897 10.3821 20.5538 10.2216C20.5422 10.1632 20.549 10.1027 20.5732 10.0484C20.5973 9.99408 20.6377 9.94876 20.6886 9.91875L21.8568 9.26383C21.9728 9.20413 22.0631 9.10348 22.1103 8.981C22.1576 8.85853 22.1586 8.72279 22.1133 8.59959L21.9107 8.03528C21.8663 7.91166 21.7782 7.80893 21.6635 7.74675C21.5487 7.68456 21.4152 7.66729 21.2886 7.69824L19.9784 7.9571C19.9198 7.96768 19.8594 7.9593 19.8058 7.93318C19.7522 7.90705 19.7082 7.86451 19.6799 7.81162C19.6035 7.66718 19.5204 7.52015 19.4338 7.3757C19.4023 7.32424 19.3875 7.26413 19.3916 7.20379C19.3956 7.14345 19.4183 7.08589 19.4563 7.03918L20.3281 6.02238C20.4167 5.92639 20.4676 5.80112 20.4712 5.67C20.4749 5.53888 20.4312 5.4109 20.3481 5.31L19.9676 4.84871C19.8848 4.74746 19.7678 4.68082 19.6391 4.66169C19.5105 4.64257 19.3794 4.67231 19.2712 4.74516L18.124 5.44046C18.0732 5.47123 18.0138 5.48466 17.9548 5.47879C17.8958 5.47292 17.8403 5.44805 17.7963 5.40785C17.6697 5.2955 17.5399 5.1873 17.4184 5.08738C17.3717 5.05021 17.338 4.99901 17.3222 4.94119C17.3063 4.88338 17.3091 4.82197 17.3302 4.76587L17.805 3.50263C17.8568 3.3821 17.8628 3.24659 17.8221 3.12184C17.7813 2.9971 17.6966 2.89181 17.584 2.82597L17.0666 2.52104C16.9539 2.45545 16.8212 2.43412 16.694 2.46116C16.5667 2.4882 16.4538 2.56168 16.3768 2.66755L15.5384 3.73095C15.5082 3.77717 15.4631 3.81134 15.4106 3.82759C15.3582 3.84384 15.3019 3.84116 15.2512 3.82C15.2199 3.80705 14.9553 3.69781 14.7497 3.62844C14.6933 3.60988 14.6442 3.57359 14.6097 3.52487C14.5752 3.47615 14.557 3.41756 14.5579 3.35767L14.5779 2.00797C14.585 1.87618 14.5443 1.74628 14.4634 1.6426C14.3825 1.53891 14.267 1.46855 14.1384 1.44469L13.5512 1.34115C13.4233 1.31884 13.2917 1.34417 13.1808 1.41245C13.07 1.48072 12.9875 1.58729 12.9486 1.71236L12.5127 2.99682C12.4929 3.05384 12.4556 3.10296 12.4061 3.13696C12.3566 3.17097 12.2977 3.18808 12.2379 3.18579H11.7379C11.6785 3.18702 11.6203 3.16932 11.5715 3.1352C11.5227 3.10109 11.4858 3.0523 11.4661 2.99579L11.0322 1.71857C10.9941 1.59259 10.9117 1.48498 10.8006 1.41589C10.6895 1.3468 10.5573 1.32096 10.4286 1.34322L9.84044 1.44677C9.71267 1.47044 9.59776 1.54011 9.51702 1.64284C9.43629 1.74558 9.39523 1.8744 9.40146 2.00539L9.42197 3.35974C9.42238 3.42053 9.40334 3.47983 9.36767 3.5288C9.332 3.57778 9.28162 3.61381 9.22403 3.63155C9.10659 3.67762 8.85172 3.77599 8.73582 3.81948C8.63326 3.85676 8.52146 3.81586 8.43121 3.71076L7.59736 2.67532C7.52086 2.5688 7.40805 2.4946 7.28063 2.46698C7.15321 2.43936 7.02017 2.46027 6.9071 2.5257L6.39121 2.82753C6.27738 2.89348 6.19176 2.99964 6.15086 3.12554C6.10995 3.25143 6.11665 3.38816 6.16967 3.50936L6.64403 4.7695C6.66472 4.82571 6.66744 4.88706 6.6518 4.94492C6.63616 5.00277 6.60296 5.05422 6.55685 5.09204C6.43223 5.19558 6.30454 5.29912 6.17736 5.41406C6.13369 5.45394 6.07853 5.47868 6.01993 5.48464C5.96134 5.4906 5.9024 5.47748 5.85172 5.44719L4.71787 4.73843C4.609 4.66693 4.47802 4.638 4.34952 4.65707C4.22102 4.67613 4.10382 4.74188 4.01993 4.84198L3.64095 5.30223C3.55677 5.40244 3.51216 5.53048 3.51566 5.66183C3.51916 5.79317 3.57053 5.9186 3.65993 6.0141L4.53582 7.02986C4.57469 7.07564 4.59793 7.13283 4.60208 7.19298C4.60624 7.25312 4.5911 7.31302 4.5589 7.36379C4.47121 7.50461 4.38762 7.65268 4.31172 7.80075C4.28333 7.85401 4.23896 7.89683 4.18497 7.92306C4.13098 7.94929 4.07015 7.95758 4.01121 7.94675L2.703 7.69151C2.57634 7.66066 2.44286 7.67796 2.32803 7.74013C2.2132 7.80229 2.12507 7.90496 2.08044 8.02855L1.87531 8.59183C1.82997 8.71518 1.83103 8.85104 1.87829 8.97365C1.92555 9.09627 2.01572 9.19712 2.13172 9.2571L3.29993 9.91202C3.35246 9.94129 3.39413 9.98702 3.41865 10.0423C3.44317 10.0976 3.44919 10.1595 3.43582 10.2185L3.42352 10.2843C3.39685 10.4287 3.37223 10.5654 3.34864 10.7109C3.34049 10.7701 3.31398 10.8253 3.2729 10.8684C3.23182 10.9116 3.17827 10.9405 3.11993 10.9511L1.80249 11.1659C1.67365 11.1819 1.55498 11.2447 1.46863 11.3425C1.38228 11.4404 1.33416 11.5666 1.33326 11.6976V12.2972C1.33251 12.4287 1.38013 12.5558 1.46691 12.654C1.55369 12.7521 1.67345 12.8142 1.803 12.8283L3.11993 13.0427C3.1791 13.0524 3.23357 13.0812 3.27517 13.1248C3.31678 13.1684 3.34327 13.2244 3.3507 13.2844C3.37582 13.448 3.40198 13.6168 3.43788 13.7773C3.44944 13.8357 3.44266 13.8963 3.41848 13.9506C3.3943 14.0049 3.35393 14.0502 3.303 14.0802L2.13531 14.7361C2.01931 14.7958 1.92909 14.8965 1.88182 15.019C1.83454 15.1414 1.8335 15.2772 1.8789 15.4004L2.08403 15.9647C2.12855 16.0882 2.21659 16.1909 2.33134 16.2531C2.44608 16.3152 2.57949 16.3326 2.70608 16.3017L4.01634 16.0455C4.07493 16.0347 4.13539 16.043 4.18902 16.0692C4.24265 16.0953 4.28668 16.1379 4.3148 16.1909C4.39172 16.3359 4.47428 16.4824 4.56095 16.6269C4.59258 16.6783 4.60742 16.7384 4.60337 16.7988C4.59932 16.8592 4.57659 16.9167 4.53839 16.9634L3.66659 17.9797C3.57699 18.0749 3.52494 18.1999 3.52022 18.3312C3.5155 18.4625 3.55843 18.591 3.64095 18.6926L4.02095 19.1538C4.10366 19.2552 4.22072 19.3219 4.3494 19.341C4.47809 19.3602 4.60922 19.3304 4.71736 19.2574L5.86454 18.5621C5.9154 18.5313 5.97472 18.5179 6.03372 18.5238C6.09273 18.5296 6.1483 18.5545 6.19223 18.5947C6.31941 18.7071 6.44864 18.8153 6.57018 18.9152C6.61679 18.9524 6.65049 19.0036 6.66644 19.0613C6.68238 19.1191 6.67974 19.1805 6.6589 19.2367L6.18351 20.4999C6.1318 20.6205 6.12574 20.756 6.16649 20.8807C6.20724 21.0055 6.29195 21.1107 6.40454 21.1766L6.923 21.4789C7.03561 21.5446 7.16825 21.566 7.29552 21.539C7.42278 21.5121 7.53574 21.4387 7.61274 21.3329L8.46146 20.2794C8.53326 20.1898 8.64608 20.1499 8.72967 20.1841C8.90813 20.2587 9.02762 20.3006 9.23941 20.372C9.29583 20.3907 9.34489 20.4269 9.37948 20.4756C9.41406 20.5243 9.43236 20.5829 9.43172 20.6428L9.41121 21.9915C9.40428 22.1232 9.44505 22.253 9.52591 22.3566C9.60677 22.4603 9.72221 22.5307 9.85069 22.5548L10.4379 22.6583C10.5658 22.6808 10.6975 22.6556 10.8084 22.5873C10.9193 22.519 11.0018 22.4123 11.0404 22.2871L11.4763 21.0047C11.4961 20.9476 11.5334 20.8985 11.5829 20.8645C11.6324 20.8304 11.6914 20.8134 11.7512 20.8157H12.2512C12.3106 20.8144 12.3688 20.8321 12.4176 20.8662C12.4664 20.9003 12.5033 20.9492 12.523 21.0057L12.9574 22.283C12.991 22.3938 13.059 22.4909 13.1512 22.5599C13.2435 22.629 13.3553 22.6664 13.4702 22.6666C13.5008 22.6667 13.5313 22.6639 13.5615 22.6583L14.1497 22.5548C14.2774 22.5311 14.3923 22.4614 14.4731 22.3587C14.5538 22.2559 14.5949 22.1271 14.5886 21.9961L14.5681 20.6418C14.5677 20.5821 14.5862 20.5239 14.6207 20.4755C14.6553 20.4271 14.7042 20.391 14.7604 20.3726C14.9574 20.3058 15.0958 20.2519 15.2174 20.2043L15.2481 20.1924C15.4071 20.137 15.484 20.2043 15.5286 20.2602L16.3876 21.3283C16.4646 21.4339 16.5775 21.5072 16.7046 21.5342C16.8318 21.5611 16.9643 21.5398 17.0768 21.4743L17.5933 21.1724C17.7062 21.1066 17.7912 21.001 17.832 20.8759C17.8727 20.7508 17.8664 20.6149 17.8143 20.4942L17.3404 19.2341C17.3195 19.178 17.3166 19.1166 17.3322 19.0587C17.3478 19.0008 17.381 18.9493 17.4271 18.9116C17.5517 18.808 17.6794 18.7045 17.8066 18.5895C17.8505 18.5495 17.906 18.5248 17.9649 18.519C18.0238 18.5133 18.083 18.5267 18.1338 18.5574L19.282 19.2512C19.3908 19.3228 19.5218 19.3518 19.6503 19.3327C19.7789 19.3136 19.8961 19.2478 19.9799 19.1476L20.3594 18.6869C20.4436 18.5867 20.4882 18.4586 20.4847 18.3273C20.4812 18.1959 20.4298 18.0705 20.3404 17.975L19.4656 16.9566C19.4267 16.9109 19.4035 16.8537 19.3993 16.7935C19.3951 16.7334 19.4103 16.6735 19.4425 16.6227C19.5302 16.4824 19.6138 16.3343 19.6897 16.1858C19.7182 16.1326 19.7626 16.0899 19.8165 16.0637C19.8705 16.0375 19.9312 16.0291 19.9902 16.0398L21.2968 16.2971C21.4235 16.3279 21.557 16.3106 21.6718 16.2484C21.7866 16.1863 21.8748 16.0836 21.9194 15.96L22.122 15.3967C22.1673 15.2735 22.1662 15.1377 22.1189 15.0152C22.0717 14.8926 21.9815 14.7919 21.8656 14.732L20.6963 14.076C20.6445 14.0465 20.6035 14.0009 20.5794 13.9459C20.5553 13.891 20.5494 13.8297 20.5625 13.7711L20.5748 13.7054C20.6015 13.5609 20.6261 13.4242 20.6497 13.2788C20.6578 13.2195 20.6843 13.1643 20.7254 13.1212C20.7665 13.078 20.82 13.0491 20.8784 13.0385L22.1958 12.8242C22.325 12.8085 22.444 12.7457 22.5307 12.6478C22.6173 12.5498 22.6657 12.4233 22.6666 12.292V11.6857ZM8.18198 16.5523C8.11807 16.6645 8.02871 16.7598 7.92124 16.8303C7.81376 16.9008 7.69125 16.9446 7.56375 16.9581C7.43626 16.9715 7.30742 16.9542 7.18783 16.9076C7.06824 16.861 6.96131 16.7864 6.87582 16.69C5.72051 15.4004 5.08261 13.7224 5.08659 11.9836C5.09057 10.2448 5.73616 8.56985 6.89736 7.28562C6.98329 7.18922 7.09068 7.11482 7.21068 7.06855C7.33068 7.02227 7.45986 7.00544 7.58756 7.01944C7.71527 7.03345 7.83785 7.07789 7.94521 7.1491C8.05257 7.22031 8.14163 7.31625 8.20505 7.42903L10.5461 11.5889C10.6164 11.713 10.6534 11.8534 10.6534 11.9964C10.6534 12.1393 10.6164 12.2797 10.5461 12.4038L8.18198 16.5523ZM11.9999 18.9949C11.5119 18.995 11.0253 18.943 10.5481 18.8396C10.4238 18.8116 10.3078 18.7544 10.2095 18.6726C10.1112 18.5909 10.0333 18.4869 9.98223 18.3691C9.93114 18.2513 9.90825 18.1231 9.91542 17.9947C9.9226 17.8663 9.95963 17.7414 10.0235 17.6302L12.3825 13.4884C12.4534 13.3636 12.5558 13.2599 12.6791 13.1879C12.8025 13.1158 12.9425 13.0778 13.085 13.0779H17.8102C17.9375 13.0777 18.063 13.1078 18.1766 13.1657C18.2902 13.2236 18.3887 13.3077 18.4642 13.4112C18.5396 13.5147 18.5898 13.6347 18.6107 13.7615C18.6316 13.8882 18.6226 14.0182 18.5845 14.1408C17.6876 16.953 15.0768 18.9949 11.9999 18.9949ZM12.3851 10.5095L10.0512 6.36045C9.98796 6.24904 9.95156 6.12416 9.94496 5.99592C9.93836 5.86768 9.96174 5.73967 10.0132 5.62224C10.0647 5.50481 10.1428 5.40125 10.2412 5.31994C10.3397 5.23862 10.4557 5.18183 10.5799 5.15416C11.0468 5.05482 11.5227 5.00485 11.9999 5.00506C15.0768 5.00506 17.6876 7.04695 18.583 9.86076C18.6211 9.98336 18.6301 10.1133 18.6091 10.2401C18.5882 10.3668 18.538 10.4868 18.4626 10.5903C18.3872 10.6938 18.2887 10.7779 18.1751 10.8359C18.0615 10.8938 17.9359 10.9238 17.8086 10.9236H13.0907C12.9473 10.9239 12.8063 10.8857 12.6824 10.813C12.5584 10.7402 12.4558 10.6354 12.3851 10.5095Z" fill="white"/>
</svg>
