    <svg
                    xmlns="http://www.w3.org/2000/svg"
                    width="13"
                    height="12"
                    viewBox="0 0 13 12"
                    fill="none"
                  >
                    <g clipPath="url(#clip0_7516_3345)">
                      <path
                        fillRule="evenodd"
                        clipRule="evenodd"
                        d="M4.92969 10.0552C4.92962 10.2701 4.97386 10.4827 5.05963 10.6797C5.07336 10.4192 5.26559 10.2209 5.59278 10.1332C5.8024 10.0773 6.01687 10.0415 6.23328 10.0264C6.08211 9.96749 5.95622 9.8577 5.87732 9.71594C5.79842 9.57418 5.77146 9.40934 5.80108 9.24983C5.83069 9.09032 5.91504 8.94615 6.03957 8.84216C6.1641 8.73818 6.32101 8.6809 6.48324 8.68021C6.64547 8.67952 6.80286 8.73546 6.92828 8.83838C7.05369 8.94129 7.13926 9.08475 7.17023 9.244C7.20121 9.40325 7.17565 9.56831 7.09796 9.71074C7.02028 9.85316 6.89533 9.96402 6.74466 10.0242C6.96874 10.0387 7.19084 10.0752 7.40776 10.1332C7.7348 10.2209 7.92669 10.419 7.94075 10.6794C8.03354 10.4654 8.07748 10.2333 8.06936 10.0002C8.06125 9.76704 8.00128 9.53862 7.89383 9.33155C7.78638 9.12448 7.63414 8.94394 7.44818 8.80308C7.26222 8.66221 7.0472 8.56455 6.81877 8.5172C6.59033 8.46984 6.35422 8.47397 6.12758 8.5293C5.90095 8.58463 5.68948 8.68976 5.50857 8.83705C5.32765 8.98434 5.18183 9.17009 5.08169 9.3808C4.98156 9.59151 4.92963 9.82188 4.92969 10.0552ZM6.48645 9.69916C6.42284 9.69917 6.36066 9.68032 6.30776 9.64499C6.25486 9.60966 6.21364 9.55943 6.18929 9.50067C6.16494 9.4419 6.15857 9.37723 6.17097 9.31484C6.18338 9.25246 6.21401 9.19515 6.259 9.15017C6.30398 9.10519 6.36129 9.07456 6.42368 9.06216C6.48607 9.04976 6.55073 9.05614 6.6095 9.08049C6.66826 9.10484 6.71848 9.14607 6.75381 9.19897C6.78914 9.25187 6.80799 9.31406 6.80797 9.37767C6.80788 9.46291 6.77397 9.54463 6.71369 9.6049C6.65342 9.66518 6.57169 9.69907 6.48645 9.69916ZM6.5 11.6255C6.33517 11.6257 6.17137 11.5996 6.01473 11.5483V10.8737C6.01473 10.8239 5.99497 10.7762 5.95981 10.7411C5.92465 10.7059 5.87695 10.6862 5.82723 10.6862C5.7775 10.6862 5.72981 10.7059 5.69464 10.7411C5.65948 10.7762 5.63973 10.8239 5.63973 10.8737V11.3678C5.56666 11.3197 5.49767 11.2656 5.43348 11.2062V10.7099C5.43348 10.5893 5.57279 10.5267 5.69 10.4954C5.95042 10.4262 6.21879 10.3916 6.48823 10.3923H6.51369C6.78279 10.3917 7.05081 10.4264 7.31091 10.4954C7.4278 10.5267 7.56727 10.5893 7.56727 10.7099V11.2061C7.50304 11.2655 7.43406 11.3196 7.36102 11.3678V10.8737C7.36102 10.8239 7.34127 10.7762 7.30611 10.7411C7.27094 10.7059 7.22325 10.6862 7.17352 10.6862C7.1238 10.6862 7.0761 10.7059 7.04094 10.7411C7.00578 10.7762 6.98602 10.8239 6.98602 10.8737V11.5481C6.82914 11.5994 6.66513 11.6255 6.50009 11.6255L6.5 11.6255ZM4.55469 10.0552C4.55469 9.67045 4.66878 9.29435 4.88253 8.97444C5.09629 8.65454 5.4001 8.4052 5.75556 8.25797C6.11102 8.11073 6.50216 8.07221 6.87951 8.14727C7.25687 8.22233 7.60349 8.4076 7.87554 8.67966C8.1476 8.95171 8.33287 9.29833 8.40793 9.67569C8.48299 10.053 8.44447 10.4442 8.29723 10.7996C8.15 11.1551 7.90066 11.4589 7.58076 11.6727C7.26085 11.8864 6.88475 12.0005 6.5 12.0005C5.98425 11.9999 5.48979 11.7948 5.1251 11.4301C4.76041 11.0654 4.55527 10.5709 4.55469 10.0552ZM6.5 3.51614C6.66491 3.51614 6.82879 3.49015 6.9856 3.43912V2.76424C6.9856 2.71451 7.00536 2.66682 7.04052 2.63166C7.07568 2.59649 7.12337 2.57674 7.1731 2.57674C7.22283 2.57674 7.27052 2.59649 7.30568 2.63166C7.34085 2.66682 7.3606 2.71451 7.3606 2.76424V3.25839C7.43368 3.21025 7.50267 3.15616 7.56685 3.09668V2.60032C7.56685 2.48008 7.42735 2.4175 7.3103 2.38598C6.77876 2.24845 6.22096 2.24845 5.68941 2.38598C5.57253 2.41746 5.43303 2.48008 5.43303 2.60032V3.09663C5.49725 3.15608 5.56623 3.21017 5.63928 3.25835V2.76424C5.63928 2.71451 5.65904 2.66682 5.6942 2.63166C5.72936 2.59649 5.77705 2.57674 5.82678 2.57674C5.87651 2.57674 5.9242 2.59649 5.95936 2.63166C5.99453 2.66682 6.01428 2.71451 6.01428 2.76424V3.43872C6.17104 3.49003 6.33494 3.51614 6.49988 3.51607L6.5 3.51614ZM6.83541 1.26829C6.83539 1.20471 6.81652 1.14256 6.78118 1.08971C6.74584 1.03685 6.69562 0.99566 6.63687 0.971342C6.57812 0.947023 6.51349 0.940668 6.45113 0.953081C6.38877 0.965495 6.33149 0.996118 6.28654 1.04108C6.24158 1.08604 6.21097 1.14333 6.19856 1.20569C6.18616 1.26805 6.19252 1.33268 6.21685 1.39143C6.24118 1.45017 6.28237 1.50038 6.33524 1.53571C6.3881 1.57105 6.45025 1.58991 6.51383 1.58993C6.5991 1.58985 6.68087 1.55593 6.74115 1.49562C6.80143 1.4353 6.83531 1.35352 6.83534 1.26825L6.83541 1.26829ZM4.92969 1.94592C4.92958 1.71259 4.98147 1.48218 5.08158 1.27142C5.1817 1.06067 5.32752 0.874872 5.50844 0.727542C5.68937 0.580211 5.90085 0.475051 6.12752 0.419706C6.35418 0.36436 6.59033 0.360221 6.8188 0.40759C7.04726 0.454958 7.2623 0.552643 7.44828 0.693543C7.63426 0.834442 7.7865 1.01501 7.89393 1.22213C8.00137 1.42925 8.0613 1.65771 8.06937 1.89089C8.07744 2.12407 8.03345 2.35613 7.94059 2.57018C7.92669 2.30979 7.73434 2.11153 7.40759 2.02408C7.19797 1.96807 6.98347 1.93223 6.76702 1.91707C6.91799 1.85806 7.04364 1.74825 7.12232 1.60654C7.20099 1.46484 7.22777 1.30012 7.19804 1.14079C7.1683 0.981459 7.08391 0.837493 6.95942 0.733706C6.83492 0.629919 6.67812 0.572814 6.51604 0.572235C6.35396 0.571656 6.19675 0.627638 6.07152 0.730533C5.94629 0.833427 5.86087 0.976787 5.83 1.1359C5.79912 1.29502 5.82473 1.45992 5.90239 1.60218C5.98005 1.74445 6.10492 1.85516 6.25545 1.91524C6.03141 1.92944 5.80934 1.9659 5.59252 2.02408C5.2655 2.11148 5.07327 2.30974 5.05953 2.57018C4.97371 2.37325 4.92951 2.16073 4.92969 1.94592ZM8.44545 1.94592C8.44543 2.33065 8.33132 2.70674 8.11756 3.02663C7.9038 3.34652 7.59998 3.59583 7.24453 3.74306C6.88908 3.89028 6.49795 3.92879 6.12061 3.85373C5.74327 3.77867 5.39666 3.5934 5.12461 3.32135C4.85255 3.04931 4.66728 2.7027 4.59222 2.32536C4.51715 1.94801 4.55566 1.55689 4.70288 1.20143C4.85009 0.845977 5.09941 0.542158 5.41929 0.328393C5.73918 0.114627 6.11526 0.000516094 6.5 0.000488281C7.01578 0.00104668 7.51027 0.206194 7.87497 0.570915C8.23967 0.935637 8.44479 1.43014 8.44531 1.94592H8.44545ZM12.1251 6.00061C12.1252 5.7673 12.0733 5.53691 11.9731 5.3262C11.873 5.11548 11.7271 4.92973 11.5462 4.78244C11.3652 4.63515 11.1538 4.53003 10.9271 4.47472C10.7004 4.41941 10.4643 4.4153 10.2359 4.46269C10.0074 4.51008 9.79242 4.60778 9.60647 4.74868C9.42051 4.88958 9.26829 5.07014 9.16087 5.27725C9.05345 5.48435 8.99352 5.71279 8.98545 5.94596C8.97739 6.17912 9.02137 6.41116 9.11422 6.62519C9.12812 6.36464 9.32047 6.16638 9.64754 6.07865C9.85719 6.02269 10.0717 5.98697 10.2882 5.97196C10.137 5.91311 10.0111 5.80334 9.93221 5.66158C9.8533 5.51983 9.82634 5.35498 9.85597 5.19548C9.8856 5.03597 9.96997 4.89181 10.0945 4.78785C10.2191 4.68389 10.376 4.62666 10.5382 4.62603C10.7005 4.62539 10.8578 4.6814 10.9832 4.78438C11.1086 4.88736 11.194 5.03086 11.2249 5.19014C11.2558 5.34941 11.2301 5.51446 11.1523 5.65682C11.0745 5.79919 10.9495 5.90994 10.7988 5.96997C11.023 5.98437 11.2454 6.02077 11.4625 6.07865C11.7894 6.16605 11.9813 6.36431 11.9954 6.62475C12.081 6.4278 12.1252 6.21531 12.125 6.00054L12.1251 6.00061ZM10.8627 5.32289C10.8627 5.38653 10.8439 5.44875 10.8085 5.50169C10.7732 5.55462 10.723 5.59589 10.6642 5.62027C10.6054 5.64464 10.5407 5.65104 10.4783 5.63863C10.4159 5.62623 10.3585 5.5956 10.3135 5.5506C10.2685 5.5056 10.2379 5.44827 10.2255 5.38585C10.2131 5.32343 10.2194 5.25873 10.2438 5.19994C10.2682 5.14115 10.3094 5.09091 10.3624 5.05558C10.4153 5.02025 10.4775 5.0014 10.5412 5.00144C10.6264 5.00159 10.7081 5.03551 10.7683 5.09578C10.8286 5.15604 10.8625 5.23773 10.8627 5.32296V5.32289ZM10.5545 7.57089C10.3897 7.57085 10.226 7.5448 10.0693 7.49369V6.81902C10.0693 6.76929 10.0495 6.7216 10.0144 6.68644C9.97919 6.65127 9.9315 6.63152 9.88177 6.63152C9.83205 6.63152 9.78435 6.65127 9.74919 6.68644C9.71403 6.7216 9.69427 6.76929 9.69427 6.81902V7.31301C9.62111 7.26509 9.55211 7.21109 9.48802 7.15157V6.65493C9.48802 6.5347 9.62734 6.47212 9.74438 6.44076C10.0048 6.37164 10.2732 6.33697 10.5426 6.33764H10.5684C10.8374 6.33708 11.1053 6.37175 11.3653 6.44076C11.4823 6.47207 11.6218 6.5347 11.6218 6.65493V7.15125C11.5575 7.21068 11.4884 7.26476 11.4153 7.31296V6.81902C11.4153 6.76929 11.3956 6.7216 11.3604 6.68644C11.3253 6.65127 11.2776 6.63152 11.2278 6.63152C11.1781 6.63152 11.1304 6.65127 11.0953 6.68644C11.0601 6.7216 11.0403 6.76929 11.0403 6.81902V7.49353C10.8834 7.54477 10.7194 7.57087 10.5544 7.57087L10.5545 7.57089ZM12.5 6.00058C12.5 6.38533 12.3859 6.76144 12.1721 7.08134C11.9584 7.40124 11.6546 7.65058 11.2991 7.79782C10.9436 7.94505 10.5525 7.98358 10.1752 7.90852C9.7978 7.83346 9.45118 7.64818 9.17912 7.37613C8.90706 7.10407 8.72179 6.75745 8.64673 6.38009C8.57167 6.00274 8.61019 5.6116 8.75743 5.25614C8.90466 4.90068 9.154 4.59687 9.47391 4.38311C9.79381 4.16936 10.1699 4.05527 10.5547 4.05527C11.0704 4.0558 11.5649 4.26091 11.9297 4.62561C12.2944 4.99031 12.4995 5.4848 12.5001 6.00058H12.5ZM0.874977 6.00058C0.874891 6.21544 0.919126 6.42801 1.00491 6.625C1.01865 6.36461 1.21088 6.16636 1.53807 6.07863C1.74767 6.0227 1.96215 5.98697 2.17857 5.97194C2.02738 5.91307 1.90147 5.80328 1.82257 5.66151C1.74366 5.51975 1.71671 5.35489 1.74634 5.19537C1.77598 5.03585 1.86036 4.89168 1.98493 4.78771C2.10949 4.68375 2.26643 4.62652 2.42867 4.62589C2.59092 4.62525 2.7483 4.68126 2.87367 4.78425C2.99904 4.88724 3.08454 5.03075 3.11543 5.19003C3.14631 5.34931 3.12064 5.51437 3.04284 5.65675C2.96505 5.79913 2.84 5.9099 2.68927 5.96995C2.91356 5.98433 3.13589 6.02073 3.35305 6.07863C3.67974 6.16603 3.87198 6.36428 3.88588 6.62472C3.97862 6.4107 4.02253 6.17871 4.01439 5.94559C4.00625 5.71248 3.94628 5.48411 3.83883 5.27708C3.73138 5.07005 3.57916 4.88955 3.39322 4.74872C3.20729 4.60788 2.99231 4.51024 2.76391 4.46289C2.53551 4.41554 2.29943 4.41967 2.07283 4.47499C1.84623 4.5303 1.6348 4.6354 1.4539 4.78266C1.27301 4.92991 1.12719 5.11562 1.02706 5.32629C0.92692 5.53695 0.874976 5.76728 0.875 6.00054L0.874977 6.00058ZM2.75326 5.32293C2.75329 5.38656 2.73446 5.44876 2.69915 5.50168C2.66383 5.5546 2.61361 5.59586 2.55485 5.62024C2.49608 5.64463 2.4314 5.65103 2.369 5.63865C2.30659 5.62628 2.24925 5.59567 2.20424 5.55071C2.15923 5.50574 2.12856 5.44844 2.11611 5.38605C2.10367 5.32365 2.11 5.25897 2.13432 5.20018C2.15864 5.14138 2.19984 5.09112 2.25272 5.05575C2.30561 5.02037 2.36779 5.00147 2.43141 5.00144C2.5167 5.00148 2.59849 5.03536 2.65883 5.09564C2.71917 5.15592 2.75313 5.23765 2.75326 5.32293ZM2.44531 7.57089C2.28045 7.57086 2.11662 7.54481 1.95987 7.49369V6.81902C1.95987 6.76929 1.94012 6.7216 1.90496 6.68644C1.86979 6.65127 1.8221 6.63152 1.77237 6.63152C1.72265 6.63152 1.67496 6.65127 1.63979 6.68644C1.60463 6.7216 1.58487 6.76929 1.58487 6.81902V7.31301C1.51171 7.26509 1.44272 7.21109 1.37862 7.15157V6.65493C1.37862 6.5347 1.51777 6.47212 1.63501 6.44076C1.89962 6.37061 2.17238 6.33593 2.44613 6.33764C2.71946 6.33558 2.99182 6.37026 3.2559 6.44076C3.37309 6.47207 3.51245 6.5347 3.51245 6.65493V7.15125C3.44817 7.21063 3.3792 7.26471 3.3062 7.31296V6.81902C3.3062 6.76929 3.28644 6.7216 3.25128 6.68644C3.21611 6.65127 3.16842 6.63152 3.1187 6.63152C3.06897 6.63152 3.02128 6.65127 2.98611 6.68644C2.95095 6.7216 2.9312 6.76929 2.9312 6.81902V7.49353C2.77432 7.54475 2.61034 7.57086 2.44531 7.57089ZM0.5 6.00058C0.5 5.61584 0.614088 5.23974 0.827836 4.91984C1.04158 4.59993 1.34539 4.3506 1.70085 4.20336C2.0563 4.05612 2.44743 4.01759 2.82478 4.09264C3.20213 4.16769 3.54875 4.35295 3.82081 4.625C4.09288 4.89704 4.27816 5.24365 4.35323 5.621C4.42831 5.99834 4.3898 6.38948 4.24258 6.74494C4.09536 7.1004 3.84605 7.40423 3.52616 7.61799C3.20627 7.83176 2.83017 7.94587 2.44543 7.94589C1.92969 7.94527 1.43525 7.74012 1.07057 7.37544C0.705889 7.01076 0.500737 6.51632 0.500117 6.00058H0.5ZM9.00716 10.1732C9.04248 10.1731 9.07707 10.1631 9.10695 10.1442C9.72688 9.75223 10.2518 9.22721 10.6437 8.60723C10.6691 8.5652 10.6769 8.51492 10.6656 8.46718C10.6542 8.41945 10.6246 8.37806 10.5831 8.35189C10.5416 8.32572 10.4915 8.31687 10.4436 8.32722C10.3956 8.33758 10.3536 8.36632 10.3266 8.40729C9.96455 8.98006 9.47949 9.46501 8.90663 9.82692C8.87221 9.84864 8.84579 9.88096 8.83134 9.91901C8.8169 9.95707 8.81522 9.99878 8.82656 10.0379C8.83791 10.077 8.86165 10.1113 8.89422 10.1357C8.92679 10.1601 8.96641 10.1733 9.00711 10.1732H9.00716ZM2.67355 8.40729C2.66052 8.38619 2.64344 8.36788 2.6233 8.35342C2.60316 8.33896 2.58035 8.32864 2.55619 8.32305C2.53203 8.31746 2.507 8.31671 2.48256 8.32085C2.45811 8.325 2.43472 8.33394 2.41376 8.34718C2.39279 8.36041 2.37465 8.37767 2.36039 8.39796C2.34614 8.41825 2.33604 8.44116 2.33069 8.46537C2.32535 8.48959 2.32485 8.51462 2.32924 8.53902C2.33363 8.56343 2.34281 8.58672 2.35625 8.60756C2.74831 9.22741 3.27332 9.75231 3.89326 10.1442C3.92308 10.1632 3.95772 10.1733 3.99308 10.1732C4.03369 10.1732 4.07319 10.16 4.10565 10.1355C4.1381 10.1111 4.16175 10.0768 4.17304 10.0378C4.18433 9.99883 4.18265 9.9572 4.16826 9.91923C4.15386 9.88126 4.12752 9.84899 4.0932 9.82727C3.52051 9.46512 3.03556 8.98007 2.67355 8.40729ZM3.89323 1.85683C3.27331 2.24877 2.74831 2.77367 2.35625 3.39351C2.32969 3.43559 2.32094 3.4865 2.33191 3.53503C2.34289 3.58356 2.37269 3.62575 2.41477 3.65231C2.45685 3.67887 2.50776 3.68762 2.55629 3.67665C2.60483 3.66567 2.64701 3.63586 2.67357 3.59379C3.03558 3.02101 3.52051 2.53597 4.0932 2.17382C4.11493 2.16113 4.13388 2.1442 4.14892 2.12403C4.16396 2.10387 4.17479 2.08088 4.18077 2.05644C4.18674 2.032 4.18773 2.0066 4.18369 1.98177C4.17964 1.95694 4.17064 1.93317 4.15721 1.91189C4.14379 1.89061 4.12622 1.87225 4.10556 1.8579C4.08489 1.84356 4.06155 1.83351 4.03692 1.82838C4.01229 1.82324 3.98687 1.82311 3.96219 1.828C3.93751 1.83289 3.91407 1.84269 3.89326 1.85683H3.89323ZM10.6437 3.39351C10.6569 3.41434 10.6658 3.43755 10.67 3.46182C10.6742 3.48609 10.6735 3.51095 10.6681 3.53497C10.6627 3.559 10.6526 3.58172 10.6384 3.60183C10.6242 3.62195 10.6061 3.63908 10.5853 3.65223C10.5645 3.66538 10.5413 3.6743 10.517 3.67848C10.4927 3.68266 10.4679 3.68201 10.4438 3.67659C10.4198 3.67116 10.3971 3.66105 10.377 3.64685C10.3569 3.63264 10.3397 3.61461 10.3266 3.59379C9.96437 3.02107 9.47935 2.53605 8.90663 2.17382C8.88557 2.16079 8.86729 2.14371 8.85286 2.12357C8.83844 2.10343 8.82814 2.08064 8.82258 2.0565C8.81701 2.03236 8.81629 2.00735 8.82044 1.98293C8.8246 1.95851 8.83355 1.93515 8.84678 1.91421C8.86002 1.89327 8.87727 1.87516 8.89754 1.86092C8.91782 1.84669 8.94071 1.83661 8.9649 1.83128C8.9891 1.82594 9.0141 1.82545 9.03849 1.82984C9.06287 1.83422 9.08614 1.8434 9.10695 1.85683C9.72675 2.24887 10.2517 2.77375 10.6437 3.39351Z"
                        fill="white"
                      />
                    </g>
                    <defs>
                      <clipPath id="clip0_7516_3345">
                        <rect
                          width="12"
                          height="12"
                          fill="white"
                          transform="translate(0.5)"
                        />
                      </clipPath>
                    </defs>
                  </svg>