<svg width="22" height="23" viewBox="0 0 22 23" fill="none" xmlns="http://www.w3.org/2000/svg">
<g clip-path="url(#clip0_6791_760)">
<path d="M21.4871 11.7058C21.4871 10.8045 21.414 10.1467 21.2557 9.46466H10.9634V13.5328H17.0047C16.883 14.5438 16.2252 16.0663 14.7636 17.0894L14.7431 17.2256L17.9973 19.7466L18.2228 19.7691C20.2934 17.8568 21.4871 15.0432 21.4871 11.7058Z" fill="#4285F4"/>
<path d="M10.9633 22.4244C13.9231 22.4244 16.4078 21.45 18.2228 19.7691L14.7636 17.0894C13.8379 17.735 12.5955 18.1857 10.9633 18.1857C8.06447 18.1857 5.60408 16.2734 4.72702 13.6303L4.59846 13.6412L1.21466 16.26L1.17041 16.383C2.97307 19.964 6.67587 22.4244 10.9633 22.4244Z" fill="#34A853"/>
<path d="M4.72686 13.6303C4.49544 12.9482 4.36151 12.2174 4.36151 11.4622C4.36151 10.707 4.49544 9.97621 4.71469 9.29413L4.70856 9.14886L1.28235 6.48804L1.17025 6.54136C0.42729 8.02737 0.000976562 9.69609 0.000976562 11.4622C0.000976562 13.2284 0.42729 14.897 1.17025 16.383L4.72686 13.6303Z" fill="#FBBC05"/>
<path d="M10.9633 4.73869C13.0218 4.73869 14.4103 5.62785 15.202 6.37089L18.2958 3.35018C16.3958 1.58405 13.9231 0.5 10.9633 0.5C6.67587 0.5 2.97307 2.96039 1.17041 6.54135L4.71485 9.29412C5.60408 6.65102 8.06447 4.73869 10.9633 4.73869Z" fill="#EB4335"/>
</g>
<defs>
<clipPath id="clip0_6791_760">
<rect width="21.4984" height="22" fill="white" transform="translate(0 0.5)"/>
</clipPath>
</defs>
</svg>
