<svg width="24" height="24" viewBox="0 0 24 24" fill="none" xmlns="http://www.w3.org/2000/svg">
<g clip-path="url(#clip0_12344_3334)">
<path d="M23.9793 17.7982L22.2937 10.773C22.2127 10.4358 21.9112 10.198 21.5643 10.198H19.2493V2.2569C19.2493 1.84271 18.9135 1.5069 18.4993 1.5069H5.51888C5.10464 1.5069 4.76888 1.84271 4.76888 2.2569V10.198H2.43567C2.08889 10.198 1.7873 10.4358 1.70634 10.7731L0.0206719 17.7982C0.0069375 17.8555 0 17.9142 0 17.9732V21.7431C0 22.1573 0.335766 22.4931 0.75 22.4931H23.25C23.6642 22.4931 24 22.1573 24 21.7431V17.9732C24 17.9142 23.9931 17.8555 23.9793 17.7982ZM6.26887 3.0069H17.7493V13.7106H6.26887V3.0069ZM3.027 11.698H4.76888V13.731C4.43728 13.8085 4.19002 14.1054 4.19002 14.4606C4.19002 14.8748 4.52578 15.2106 4.94002 15.2106H19.06C19.4742 15.2106 19.81 14.8748 19.81 14.4606C19.81 14.1119 19.5717 13.8196 19.2493 13.7356V11.698H20.973L22.2987 17.2232H1.70123L3.027 11.698ZM1.5 20.9931V18.7232H22.5V20.9931H1.5ZM8.86472 8.57058C8.5718 8.27766 8.5718 7.80282 8.86472 7.50994C9.15759 7.21702 9.63248 7.21702 9.92536 7.50994L11.2232 8.80777L14.607 5.42405C14.8999 5.13113 15.3748 5.13113 15.6676 5.42405C15.9606 5.71693 15.9606 6.19182 15.6676 6.48469L11.7536 10.3988C11.6071 10.5452 11.4152 10.6185 11.2233 10.6185C11.0314 10.6185 10.8394 10.5452 10.693 10.3988L8.86472 8.57058Z" fill="white"/>
</g>
<defs>
<clipPath id="clip0_12344_3334">
<rect width="24" height="24" fill="white"/>
</clipPath>
</defs>
</svg>
