<svg width="18" height="18" viewBox="0 0 18 18" fill="none" xmlns="http://www.w3.org/2000/svg">
<path d="M9.08238 11.5426L6.17238 14.4526C5.82006 14.7926 5.34952 14.9826 4.85988 14.9826C4.37023 14.9826 3.8997 14.7926 3.54738 14.4526C3.37458 14.2805 3.23747 14.0759 3.14392 13.8507C3.05036 13.6255 3.0022 13.384 3.0022 13.1401C3.0022 12.8962 3.05036 12.6547 3.14392 12.4295C3.23747 12.2042 3.37458 11.9997 3.54738 11.8276L6.45738 8.91757C6.5986 8.77634 6.67795 8.5848 6.67795 8.38507C6.67795 8.18534 6.5986 7.9938 6.45738 7.85257C6.31615 7.71134 6.1246 7.632 5.92488 7.632C5.72515 7.632 5.53361 7.71134 5.39238 7.85257L2.48238 10.7701C1.89614 11.4082 1.57909 12.2481 1.59743 13.1144C1.61577 13.9807 1.96809 14.8064 2.5808 15.4191C3.19351 16.0319 4.01925 16.3842 4.88556 16.4025C5.75188 16.4209 6.59178 16.1038 7.22988 15.5176L10.1474 12.6076C10.2886 12.4663 10.3679 12.2748 10.3679 12.0751C10.3679 11.8753 10.2886 11.6838 10.1474 11.5426C10.0061 11.4013 9.8146 11.322 9.61488 11.322C9.41515 11.322 9.22361 11.4013 9.08238 11.5426ZM15.5174 2.48257C14.8865 1.85558 14.0331 1.50366 13.1436 1.50366C12.2541 1.50366 11.4008 1.85558 10.7699 2.48257L7.85238 5.39257C7.78245 5.4625 7.72698 5.54552 7.68913 5.63688C7.65129 5.72825 7.63181 5.82618 7.63181 5.92507C7.63181 6.02397 7.65129 6.12189 7.68913 6.21326C7.72698 6.30462 7.78245 6.38764 7.85238 6.45757C7.92231 6.5275 8.00532 6.58297 8.09669 6.62082C8.18806 6.65866 8.28598 6.67814 8.38488 6.67814C8.48377 6.67814 8.5817 6.65866 8.67306 6.62082C8.76443 6.58297 8.84745 6.5275 8.91738 6.45757L11.8274 3.54757C12.1797 3.20754 12.6502 3.01751 13.1399 3.01751C13.6295 3.01751 14.1001 3.20754 14.4524 3.54757C14.6252 3.71969 14.7623 3.92423 14.8558 4.14946C14.9494 4.37469 14.9976 4.61618 14.9976 4.86007C14.9976 5.10396 14.9494 5.34545 14.8558 5.57068C14.7623 5.79591 14.6252 6.00046 14.4524 6.17257L11.5424 9.08257C11.4721 9.15229 11.4163 9.23524 11.3782 9.32664C11.3401 9.41803 11.3205 9.51606 11.3205 9.61507C11.3205 9.71408 11.3401 9.81211 11.3782 9.9035C11.4163 9.9949 11.4721 10.0778 11.5424 10.1476C11.6121 10.2179 11.6951 10.2737 11.7864 10.3117C11.8778 10.3498 11.9759 10.3694 12.0749 10.3694C12.1739 10.3694 12.2719 10.3498 12.3633 10.3117C12.4547 10.2737 12.5377 10.2179 12.6074 10.1476L15.5174 7.23007C16.1444 6.59916 16.4963 5.7458 16.4963 4.85632C16.4963 3.96684 16.1444 3.11349 15.5174 2.48257ZM6.62238 11.3776C6.69246 11.4471 6.77557 11.5021 6.86695 11.5394C6.95833 11.5767 7.05617 11.5956 7.15488 11.5951C7.25358 11.5956 7.35143 11.5767 7.44281 11.5394C7.53419 11.5021 7.6173 11.4471 7.68738 11.3776L11.3774 7.68757C11.5186 7.54634 11.5979 7.3548 11.5979 7.15507C11.5979 6.95534 11.5186 6.7638 11.3774 6.62257C11.2361 6.48134 11.0446 6.402 10.8449 6.402C10.6452 6.402 10.4536 6.48134 10.3124 6.62257L6.62238 10.3126C6.55208 10.3823 6.49629 10.4652 6.45821 10.5566C6.42013 10.648 6.40053 10.7461 6.40053 10.8451C6.40053 10.9441 6.42013 11.0421 6.45821 11.1335C6.49629 11.2249 6.55208 11.3078 6.62238 11.3776Z" fill="white"/>
</svg>
