<svg width="19" height="18" viewBox="0 0 19 18" fill="none" xmlns="http://www.w3.org/2000/svg">
<g id="Icons/List">
<path id="Vector" d="M3.125 4.5C2.97666 4.5 2.83166 4.54399 2.70832 4.6264C2.58499 4.70881 2.48886 4.82594 2.43209 4.96299C2.37532 5.10003 2.36047 5.25083 2.38941 5.39632C2.41835 5.5418 2.48978 5.67544 2.59467 5.78033C2.69956 5.88522 2.8332 5.95665 2.97868 5.98559C3.12417 6.01453 3.27497 5.99968 3.41201 5.94291C3.54906 5.88614 3.66619 5.79001 3.7486 5.66668C3.83101 5.54334 3.875 5.39834 3.875 5.25C3.875 5.05109 3.79598 4.86032 3.65533 4.71967C3.51468 4.57902 3.32391 4.5 3.125 4.5ZM6.125 6H16.625C16.8239 6 17.0147 5.92098 17.1553 5.78033C17.296 5.63968 17.375 5.44891 17.375 5.25C17.375 5.05109 17.296 4.86032 17.1553 4.71967C17.0147 4.57902 16.8239 4.5 16.625 4.5H6.125C5.92609 4.5 5.73532 4.57902 5.59467 4.71967C5.45402 4.86032 5.375 5.05109 5.375 5.25C5.375 5.44891 5.45402 5.63968 5.59467 5.78033C5.73532 5.92098 5.92609 6 6.125 6ZM6.125 8.25C5.97666 8.25 5.83166 8.29399 5.70832 8.3764C5.58499 8.45881 5.48886 8.57594 5.43209 8.71299C5.37532 8.85003 5.36047 9.00083 5.38941 9.14632C5.41835 9.2918 5.48978 9.42544 5.59467 9.53033C5.69956 9.63522 5.8332 9.70665 5.97868 9.73559C6.12417 9.76453 6.27497 9.74968 6.41201 9.69291C6.54906 9.63614 6.66619 9.54001 6.7486 9.41668C6.83101 9.29334 6.875 9.14834 6.875 9C6.875 8.80109 6.79598 8.61032 6.65533 8.46967C6.51468 8.32902 6.32391 8.25 6.125 8.25ZM9.125 12C8.97666 12 8.83166 12.044 8.70832 12.1264C8.58499 12.2088 8.48886 12.3259 8.43209 12.463C8.37533 12.6 8.36047 12.7508 8.38941 12.8963C8.41835 13.0418 8.48978 13.1754 8.59467 13.2803C8.69956 13.3852 8.8332 13.4566 8.97868 13.4856C9.12417 13.5145 9.27497 13.4997 9.41201 13.4429C9.54906 13.3861 9.66619 13.29 9.7486 13.1667C9.83101 13.0433 9.875 12.8983 9.875 12.75C9.875 12.5511 9.79598 12.3603 9.65533 12.2197C9.51468 12.079 9.32391 12 9.125 12ZM16.625 8.25H9.125C8.92609 8.25 8.73532 8.32902 8.59467 8.46967C8.45402 8.61032 8.375 8.80109 8.375 9C8.375 9.19891 8.45402 9.38968 8.59467 9.53033C8.73532 9.67098 8.92609 9.75 9.125 9.75H16.625C16.8239 9.75 17.0147 9.67098 17.1553 9.53033C17.296 9.38968 17.375 9.19891 17.375 9C17.375 8.80109 17.296 8.61032 17.1553 8.46967C17.0147 8.32902 16.8239 8.25 16.625 8.25ZM16.625 12H12.125C11.9261 12 11.7353 12.079 11.5947 12.2197C11.454 12.3603 11.375 12.5511 11.375 12.75C11.375 12.9489 11.454 13.1397 11.5947 13.2803C11.7353 13.421 11.9261 13.5 12.125 13.5H16.625C16.8239 13.5 17.0147 13.421 17.1553 13.2803C17.296 13.1397 17.375 12.9489 17.375 12.75C17.375 12.5511 17.296 12.3603 17.1553 12.2197C17.0147 12.079 16.8239 12 16.625 12Z" fill="#A9AEB4"/>
</g>
</svg>
