<svg width="18" height="18" viewBox="0 0 18 18" fill="none" xmlns="http://www.w3.org/2000/svg">
<g clip-path="url(#clip0_7167_1654)">
<path d="M17.8821 5.2309C17.8821 3.64887 16.7184 2.37621 15.2805 2.37621C13.3329 2.28516 11.3465 2.25 9.31662 2.25H8.68381C6.65881 2.25 4.66896 2.28516 2.72131 2.37656C1.28693 2.37656 0.123261 3.65625 0.123261 5.23828C0.03537 6.48949 -0.00189559 7.74105 0.000213788 8.99262C-0.00330184 10.2442 0.0365419 11.4969 0.119745 12.7508C0.119745 14.3329 1.28342 15.6161 2.71779 15.6161C4.76389 15.711 6.86271 15.7532 8.9967 15.7496C11.1342 15.7567 13.2272 15.7121 15.2756 15.6161C16.7135 15.6161 17.8772 14.3329 17.8772 12.7508C17.9615 11.4957 18.0002 10.2442 17.9967 8.9891C18.0047 7.73754 17.9665 6.4848 17.8821 5.2309ZM7.27756 12.4414V5.53324L12.3752 8.98559L7.27756 12.4414Z" fill="white"/>
</g>
<defs>
<clipPath id="clip0_7167_1654">
<rect width="18" height="18" fill="white"/>
</clipPath>
</defs>
</svg>
