<svg width="18" height="18" viewBox="0 0 18 18" fill="none" xmlns="http://www.w3.org/2000/svg">
<path d="M14.491 4.17164C14.3771 4.11277 14.2663 4.04824 14.1588 3.97828C13.8464 3.77172 13.5599 3.52833 13.3056 3.25336C12.6692 2.52527 12.4316 1.78664 12.344 1.26949H12.3476C12.2744 0.840234 12.3047 0.5625 12.3092 0.5625H9.41096V11.7696C9.41096 11.9201 9.41096 12.0688 9.40463 12.2157C9.40463 12.234 9.40287 12.2509 9.40182 12.2706C9.40182 12.2787 9.40182 12.2871 9.40006 12.2955V12.3019C9.36951 12.704 9.24061 13.0924 9.0247 13.433C8.80879 13.7736 8.51249 14.0559 8.16186 14.2552C7.79642 14.4631 7.38311 14.5721 6.96268 14.5716C5.61232 14.5716 4.51791 13.4705 4.51791 12.1106C4.51791 10.7508 5.61232 9.64969 6.96268 9.64969C7.21829 9.64945 7.47233 9.68967 7.71537 9.76887L7.71889 6.81785C6.98109 6.72255 6.23154 6.78118 5.51753 6.99006C4.80353 7.19894 4.14056 7.55352 3.57045 8.03145C3.0709 8.46548 2.65093 8.98337 2.32943 9.5618C2.20709 9.77273 1.74549 10.6204 1.68959 11.996C1.65443 12.7768 1.88893 13.5858 2.00072 13.9201V13.9271C2.07104 14.124 2.3435 14.7959 2.78752 15.3622C3.14556 15.8165 3.56858 16.2156 4.04295 16.5466V16.5396L4.04998 16.5466C5.45307 17.5001 7.00873 17.4375 7.00873 17.4375C7.27803 17.4266 8.18014 17.4375 9.20459 16.952C10.3408 16.4137 10.9877 15.6118 10.9877 15.6118C11.401 15.1327 11.7296 14.5866 11.9594 13.9971C12.2217 13.3077 12.3092 12.4808 12.3092 12.1504V6.20473C12.3444 6.22582 12.8127 6.53555 12.8127 6.53555C12.8127 6.53555 13.4873 6.96797 14.5399 7.24957C15.2951 7.44996 16.3125 7.49215 16.3125 7.49215V4.61496C15.956 4.65363 15.2321 4.54113 14.491 4.17164Z" fill="white"/>
</svg>
