<svg width="22" height="23" viewBox="0 0 22 23" fill="none" xmlns="http://www.w3.org/2000/svg">
<path d="M18.2188 3.9375H3.78125C3.14328 3.93818 2.53164 4.19192 2.08053 4.64303C1.62942 5.09414 1.37568 5.70578 1.375 6.34375V16.6562C1.37568 17.2942 1.62942 17.9059 2.08053 18.357C2.53164 18.8081 3.14328 19.0618 3.78125 19.0625H18.2188C18.8567 19.0618 19.4684 18.8081 19.9195 18.357C20.3706 17.9059 20.6243 17.2942 20.625 16.6562V6.34375C20.6243 5.70578 20.3706 5.09414 19.9195 4.64303C19.4684 4.19192 18.8567 3.93818 18.2188 3.9375ZM17.6095 7.9177L11.422 12.7302C11.3013 12.824 11.1528 12.8749 11 12.8749C10.8472 12.8749 10.6987 12.824 10.578 12.7302L4.39055 7.9177C4.31785 7.8628 4.25679 7.794 4.21091 7.71529C4.16503 7.63659 4.13525 7.54956 4.1233 7.45925C4.11135 7.36893 4.11747 7.27715 4.1413 7.18922C4.16513 7.1013 4.2062 7.01898 4.26211 6.94707C4.31803 6.87515 4.38768 6.81506 4.46702 6.7703C4.54636 6.72553 4.63381 6.69698 4.72428 6.6863C4.81475 6.67562 4.90644 6.68303 4.99402 6.7081C5.0816 6.73316 5.16333 6.77538 5.23445 6.8323L11 11.3165L16.7655 6.8323C16.9097 6.72343 17.0909 6.67568 17.27 6.69938C17.4491 6.72308 17.6117 6.81632 17.7226 6.95894C17.8335 7.10157 17.8838 7.28211 17.8626 7.46152C17.8414 7.64094 17.7505 7.80481 17.6095 7.9177Z" fill="white"/>
</svg>
