<svg width="24" height="24" viewBox="0 0 24 24" fill="none" xmlns="http://www.w3.org/2000/svg">
<path d="M22.4563 5.22001C22.4457 5.05247 22.3792 4.89333 22.2675 4.76806C22.1557 4.64279 22.0051 4.55864 21.8399 4.52907C17.7852 3.80157 16.0926 3.27563 12.3088 1.56657C12.2117 1.52269 12.1064 1.5 11.9999 1.5C11.8934 1.5 11.7881 1.52269 11.691 1.56657C7.90724 3.27563 6.21459 3.80157 2.1599 4.52907C1.99465 4.55864 1.8441 4.64279 1.73234 4.76806C1.62059 4.89333 1.55409 5.05247 1.54349 5.22001C1.36302 8.08454 1.74787 10.7536 2.68865 13.1531C3.45905 15.1104 4.59919 16.901 6.04677 18.427C8.55318 21.0863 11.2143 22.2413 11.7219 22.4456C11.9023 22.5186 12.104 22.5186 12.2844 22.4456C12.7921 22.2413 15.4532 21.0863 17.9596 18.427C19.4048 16.9004 20.5427 15.1099 21.3111 13.1531C22.2519 10.7536 22.6368 8.08454 22.4563 5.22001ZM16.3157 8.74079L11.1219 14.7408C11.0551 14.8182 10.9733 14.8811 10.8813 14.9256C10.7893 14.9702 10.6892 14.9955 10.5871 15H10.5561C10.3599 15.0001 10.1714 14.9231 10.0311 14.7858L7.7249 12.5264C7.65454 12.4575 7.59845 12.3753 7.55983 12.2847C7.52121 12.1941 7.50081 12.0968 7.49981 11.9983C7.49779 11.7993 7.57488 11.6077 7.71412 11.4656C7.85336 11.3235 8.04334 11.2426 8.24227 11.2405C8.44121 11.2385 8.6328 11.3156 8.7749 11.4549L10.5093 13.1559L15.1827 7.75923C15.2472 7.68474 15.3257 7.62368 15.4137 7.57953C15.5017 7.53538 15.5976 7.50901 15.6959 7.50191C15.7941 7.49482 15.8928 7.50714 15.9863 7.53818C16.0797 7.56922 16.1662 7.61837 16.2407 7.68282C16.3152 7.74727 16.3762 7.82576 16.4204 7.91381C16.4645 8.00186 16.4909 8.09774 16.498 8.19598C16.5051 8.29422 16.4928 8.3929 16.4617 8.48638C16.4307 8.57986 16.3815 8.66631 16.3171 8.74079H16.3157Z" fill="white"/>
</svg>
