<svg width="24" height="24" viewBox="0 0 24 24" fill="none" xmlns="http://www.w3.org/2000/svg">
<path fill-rule="evenodd" clip-rule="evenodd" d="M4.7516 7.60317H3.42848C2.80822 7.60317 2.21368 7.85388 1.77576 8.30056C1.33705 8.74724 1.09082 9.35259 1.09082 9.98334C1.09082 12.2612 1.09082 16.4328 1.09082 18.7106C1.09082 20.0253 2.13731 21.0908 3.42848 21.0908C7.20225 21.0908 16.7976 21.0908 20.5713 21.0908C21.8625 21.0908 22.909 20.0253 22.909 18.7106C22.909 16.4328 22.909 12.2612 22.909 9.98334C22.909 8.66869 21.8625 7.60317 20.5713 7.60317C17.9571 7.60317 12.97 7.60317 12.97 7.60317C12.5399 7.60317 12.1908 7.95861 12.1908 8.39656C12.1908 8.83451 12.5399 9.18995 12.97 9.18995C12.97 9.18995 17.9571 9.18995 20.5713 9.18995C21.0015 9.18995 21.3506 9.54539 21.3506 9.98334C21.3506 12.2612 21.3506 16.4328 21.3506 18.7106C21.3506 19.1494 21.0015 19.504 20.5713 19.504C16.7976 19.504 7.20225 19.504 3.42848 19.504C2.99835 19.504 2.64926 19.1494 2.64926 18.7106C2.64926 16.4328 2.64926 12.2612 2.64926 9.98334C2.64926 9.77309 2.73108 9.57157 2.87757 9.42241C3.02329 9.27405 3.22199 9.18995 3.42848 9.18995H4.7516C5.18173 9.18995 5.53082 8.83451 5.53082 8.39656C5.53082 7.95861 5.18173 7.60317 4.7516 7.60317ZM12.9755 13.2624C12.6856 11.3749 11.089 9.98334 9.21264 9.98334C8.99368 9.98334 8.77238 9.98334 8.55342 9.98334C6.67705 9.98334 5.08043 11.3749 4.79056 13.2624C4.63705 14.2645 4.47108 15.3451 4.35731 16.0853C4.28718 16.5439 4.41731 17.0104 4.71342 17.3627C5.00952 17.7149 5.44199 17.9172 5.89705 17.9172C7.39705 17.9172 10.369 17.9172 11.869 17.9172C12.3241 17.9172 12.7565 17.7149 13.0526 17.3627C13.3487 17.0104 13.4789 16.5439 13.4087 16.0861L12.9755 13.2624ZM15.1168 17.1238H19.0129C19.443 17.1238 19.7921 16.7684 19.7921 16.3304C19.7921 15.8925 19.443 15.5371 19.0129 15.5371H15.1168C14.6867 15.5371 14.3376 15.8925 14.3376 16.3304C14.3376 16.7684 14.6867 17.1238 15.1168 17.1238ZM15.1168 13.9503H18.2337C18.6638 13.9503 19.0129 13.5948 19.0129 13.1569C19.0129 12.7189 18.6638 12.3635 18.2337 12.3635H15.1168C14.6867 12.3635 14.3376 12.7189 14.3376 13.1569C14.3376 13.5948 14.6867 13.9503 15.1168 13.9503ZM8.88303 3.63623C7.37757 3.63623 6.15576 4.88106 6.15576 6.41309C6.15576 7.94592 7.37757 9.18995 8.88303 9.18995C10.3885 9.18995 11.6103 7.94592 11.6103 6.41309C11.6103 4.88106 10.3885 3.63623 8.88303 3.63623Z" fill="white"/>
</svg>
