<svg width="24" height="24" viewBox="0 0 24 24" fill="none" xmlns="http://www.w3.org/2000/svg">
<path d="M21.7637 19.0037C21.7318 18.1814 21.468 17.3849 21.0028 16.7061C20.5376 16.0273 19.8899 15.4938 19.1346 15.1673L15.5746 13.7382L14.96 12.7273V12.1382C15.3673 11.6882 15.6878 11.1667 15.9055 10.6001C16.0423 10.1996 16.1456 9.78849 16.2146 9.37097H16.2946H16.3637C16.5228 9.36906 16.6768 9.31504 16.8023 9.21717C16.9277 9.11931 17.0176 8.983 17.0582 8.82915H17.0909L17.4546 8.86915H17.5055C17.6388 8.87275 17.7687 8.82601 17.8691 8.73824C17.9749 8.64046 18.0409 8.50711 18.0546 8.36369L18.1818 6.84369C18.1962 6.69404 18.1513 6.54473 18.0568 6.4278C17.9623 6.31087 17.8257 6.23563 17.6764 6.21824L17.3128 6.18187H17.2909C17.2666 6.07046 17.2164 5.96633 17.1444 5.87789C17.0724 5.78945 16.9806 5.7192 16.8764 5.67278V5.62187C17.2764 4.00006 16.7273 3.10551 16 1.9746C15.2182 0.683693 13.04 0.109147 10.3382 0.469147C10.0157 0.486966 9.69999 0.568436 9.40915 0.70886C9.11832 0.849284 8.85816 1.04589 8.64366 1.28733C8.51815 1.45179 8.43004 1.64166 8.38548 1.84369C8.08687 1.88737 7.81291 2.034 7.61094 2.25824C6.88366 3.06187 6.91275 4.78187 7.05821 5.70915C6.97237 5.76046 6.89803 5.82892 6.83984 5.91026C6.78165 5.9916 6.74086 6.08406 6.72003 6.18187H6.69094L6.3273 6.21824C6.17769 6.23565 6.04079 6.31074 5.94571 6.42756C5.85063 6.54437 5.80488 6.69367 5.81821 6.84369L5.95639 8.36369C5.96581 8.4409 5.99062 8.51544 6.02934 8.58289C6.06807 8.65035 6.11992 8.70935 6.18185 8.75642C6.2832 8.84226 6.41272 8.88759 6.54548 8.88369H6.60003L6.96366 8.84733C7.00162 8.99066 7.08444 9.11809 7.20003 9.21097C7.32264 9.31452 7.47606 9.37461 7.63639 9.38187H7.70185H7.76003C7.82591 9.79884 7.92937 10.209 8.06912 10.6073C8.28537 11.1757 8.60604 11.6987 9.01457 12.1491V12.7273L8.36366 13.7564L4.97821 15.1237C4.19199 15.4661 3.51794 16.0228 3.0331 16.7301C2.54826 17.4374 2.27217 18.2669 2.23639 19.1237L2.07275 23.2728C2.07275 23.3692 2.11107 23.4617 2.17926 23.5299C2.24746 23.5981 2.33995 23.6364 2.43639 23.6364H21.5637C21.6601 23.6364 21.7526 23.5981 21.8208 23.5299C21.889 23.4617 21.9273 23.3692 21.9273 23.2728L21.7637 19.0037ZM11.7018 14.5964C11.0291 14.0437 10.3055 13.4037 9.95639 13.0401C10.5265 13.4847 11.2272 13.7292 11.9502 13.7357C12.6732 13.7423 13.3783 13.5106 13.9564 13.0764C13.5928 13.4401 12.8655 14.0655 12.2073 14.5964H11.7018ZM12.9309 14.9601C13.5086 14.51 14.0576 14.0242 14.5746 13.5055L14.9382 14.0764L14.0364 16.1637C13.7173 15.7176 13.3462 15.3111 12.9309 14.9528V14.9601ZM16.3637 8.6546L16.0437 8.63278L16.2509 6.30551H16.3491H16.3637H16.5746L16.3637 8.6546ZM17.4546 6.92733L17.3528 8.14187L17.1891 8.12369H17.1455L17.2473 6.90915L17.4546 6.92733ZM8.14184 2.75278C8.2079 2.67604 8.292 2.61691 8.38658 2.58073C8.48116 2.54455 8.58325 2.53245 8.68366 2.54551C8.73779 2.5505 8.79235 2.54329 8.84332 2.52441C8.89429 2.50553 8.94039 2.47546 8.97821 2.43642C9.01643 2.40014 9.04631 2.35598 9.06577 2.307C9.08524 2.25803 9.09382 2.20541 9.09094 2.15278C9.09094 2.07642 9.05457 1.37824 10.4437 1.19278C12.8255 0.872784 14.7746 1.33097 15.4109 2.35642C16.0473 3.38187 16.5018 4.12733 16.1782 5.44733C16.1782 5.4946 16.16 5.54187 16.1491 5.58915C15.9876 5.61361 15.839 5.69175 15.7273 5.81097C15.6428 5.41478 15.5109 5.0302 15.3346 4.66551C14.7055 3.4946 13.7637 3.52733 13.0728 3.55278H12.9055C12.6803 3.56293 12.4557 3.58478 12.2328 3.61824C11.5055 3.71642 10.5128 3.84733 9.55275 3.44369C9.49749 3.42057 9.43737 3.41146 9.37774 3.41717C9.31811 3.42288 9.26081 3.44323 9.21094 3.47642C8.50953 3.97858 8.02786 4.73103 7.86548 5.57824H7.78548C7.63639 4.67278 7.65821 3.27278 8.14184 2.75278ZM6.66912 8.14187L6.5673 6.92733L6.73821 6.90915L6.85094 8.12733C6.83767 8.12549 6.82421 8.12549 6.81094 8.12733L6.66912 8.14187ZM7.63639 8.6546L7.41457 6.3346L7.73821 6.29824L7.96366 8.62551L7.63639 8.6546ZM8.45457 9.15642L8.51639 9.0946C8.63812 8.94718 8.69691 8.75776 8.68003 8.56733L8.50912 6.70187C8.50912 6.44006 8.53094 6.1746 8.54185 5.93097C8.57048 5.59607 8.66601 5.27032 8.82279 4.97301C8.97957 4.6757 9.1944 4.41286 9.45457 4.20006C10.3793 4.48395 11.3598 4.53516 12.3091 4.34915C12.5455 4.31642 12.7491 4.29097 12.9055 4.28369H13.0909C13.7528 4.26187 14.2728 4.24006 14.6873 5.01097C15.0509 5.70187 15.2837 7.34551 15.3455 8.24369L15.3164 8.57097C15.302 8.70932 15.3299 8.8488 15.3964 8.97097C15.3812 8.99993 15.369 9.03039 15.36 9.06187C15.1309 10.0146 13.7237 10.5964 12.9128 10.8255C12.8129 10.6411 12.6526 10.4967 12.4589 10.4165C12.2651 10.3364 12.0496 10.3254 11.8487 10.3855C11.6478 10.4456 11.4736 10.573 11.3556 10.7463C11.2376 10.9197 11.1829 11.1284 11.2006 11.3373C11.2184 11.5463 11.3076 11.7427 11.4531 11.8937C11.5987 12.0446 11.7918 12.1408 12 12.1661C12.2082 12.1914 12.4187 12.1442 12.5962 12.0325C12.7737 11.9208 12.9073 11.7514 12.9746 11.5528C13.7601 11.3612 14.5011 11.0191 15.1564 10.5455C14.7976 11.2785 14.2765 11.9202 13.6328 12.4219C13.1741 12.7939 12.6015 12.9969 12.0109 12.9969C11.4204 12.9969 10.8478 12.7939 10.3891 12.4219C9.68107 11.8783 9.12605 11.1604 8.77821 10.3382C8.6353 9.95529 8.52936 9.55955 8.46184 9.15642H8.45457ZM12.2909 11.2728C12.2909 11.3095 12.2801 11.3453 12.2597 11.3758C12.2393 11.4063 12.2103 11.4301 12.1765 11.4441C12.1426 11.4582 12.1053 11.4618 12.0693 11.4547C12.0333 11.4475 12.0003 11.4299 11.9743 11.4039C11.9484 11.378 11.9307 11.3449 11.9236 11.309C11.9164 11.273 11.9201 11.2357 11.9341 11.2018C11.9482 11.1679 11.972 11.139 12.0024 11.1186C12.0329 11.0982 12.0688 11.0873 12.1055 11.0873C12.1547 11.0873 12.2018 11.1069 12.2366 11.1416C12.2714 11.1764 12.2909 11.2236 12.2909 11.2728ZM9.38184 13.4982C9.87577 14.0019 10.4017 14.4732 10.9564 14.9091C10.5419 15.2182 10.1745 15.5856 9.86548 16.0001L9.01094 14.0582L9.38184 13.4982ZM2.95639 19.1601C2.98215 18.3695 3.25421 17.6067 3.73457 16.9782C4.13029 16.4581 4.65222 16.0476 5.25094 15.7855L8.41094 14.5055L9.30548 16.531C9.3274 16.6306 9.3774 16.722 9.44957 16.7941C9.52174 16.8663 9.61307 16.9163 9.71275 16.9382C9.75267 16.9418 9.79283 16.9418 9.83275 16.9382C9.92759 16.938 10.0207 16.9131 10.103 16.8659C10.1853 16.8187 10.2538 16.7509 10.3018 16.6691C10.4094 16.4981 10.531 16.3363 10.6655 16.1855L11.1746 16.7419L10.5455 22.9091H2.81457L2.95639 19.1601ZM11.2728 22.9091L11.88 16.6728C11.8852 16.6224 11.8798 16.5714 11.8642 16.5232C11.8485 16.475 11.823 16.4305 11.7891 16.3928L11.1637 15.6946C11.3181 15.5646 11.4796 15.4433 11.6473 15.331H12.2437C12.3382 15.4073 12.4909 15.5346 12.6655 15.6946L12.1128 16.3964C12.0543 16.4705 12.0269 16.5644 12.0364 16.6582L12.6655 22.9091H11.2728ZM13.3818 22.9091L12.7746 16.7273L13.1709 16.2255C13.3318 16.4177 13.4777 16.6219 13.6073 16.8364C13.6543 16.9194 13.7225 16.9883 13.805 17.0362C13.8874 17.0841 13.9811 17.1093 14.0764 17.1091C14.112 17.1059 14.1472 17.0998 14.1818 17.091C14.282 17.0688 14.3737 17.0182 14.4459 16.9454C14.5181 16.8725 14.5678 16.7804 14.5891 16.6801L15.5055 14.4982L18.84 15.8364C19.3982 16.0764 19.888 16.4513 20.2655 16.9273C20.7283 17.5262 20.9927 18.2546 21.0218 19.011L21.1855 22.9091H13.3818Z" fill="white"/>
</svg>
