<svg width="19" height="18" viewBox="0 0 19 18" fill="none" xmlns="http://www.w3.org/2000/svg">
<g clip-path="url(#clip0_7442_1218)">
<path d="M18.05 10.8H16.7V8.99994C16.7 8.88063 16.6527 8.7661 16.5683 8.68173C16.4838 8.59735 16.3694 8.54989 16.2499 8.55005H12.1999V7.64994C12.2001 7.53063 12.1526 7.4161 12.0683 7.33173C11.9839 7.24735 11.8694 7.19989 11.7501 7.20005H9.95V4.50005H12.65C12.7693 4.50005 12.8838 4.45276 12.9682 4.36822C13.0528 4.28384 13.1001 4.16931 13.1001 4.05V0.450055C13.1001 0.330579 13.0528 0.216211 12.9682 0.131671C12.8838 0.0472961 12.7693 0 12.65 0H6.35005C6.23058 0 6.11621 0.0472961 6.03167 0.131671C5.9473 0.216211 5.9 0.330579 5.9 0.450055V4.05C5.9 4.16931 5.9473 4.28384 6.03167 4.36822C6.11621 4.45276 6.23058 4.50005 6.35005 4.50005H9.05005V7.20005H7.25C7.13069 7.19989 7.01616 7.24735 6.93178 7.33173C6.84724 7.4161 6.79994 7.53063 6.79994 7.64994V8.55005H2.74994C2.63063 8.54989 2.5161 8.59735 2.43173 8.68173C2.34735 8.7661 2.29989 8.88063 2.30005 8.99994V10.8H0.950055C0.830579 10.8 0.716211 10.8473 0.631671 10.9317C0.547296 11.0162 0.5 11.1306 0.5 11.2501V13.9501C0.5 14.0694 0.547296 14.1839 0.631671 14.2683C0.716211 14.3526 0.830579 14.4001 0.950055 14.3999H4.55C4.66931 14.4001 4.78384 14.3526 4.86822 14.2683C4.95276 14.1839 5.00005 14.0694 5.00005 13.9501V11.2501C5.00005 11.1306 4.95276 11.0162 4.86822 10.9317C4.78384 10.8473 4.66931 10.8 4.55 10.8H3.2V9.45H6.79994V10.3499C6.79994 10.4694 6.84724 10.5838 6.93178 10.6683C7.01616 10.7527 7.13069 10.8 7.25 10.8H9.05005V14.3999H7.25C7.13069 14.3999 7.01616 14.4472 6.93178 14.5318C6.84724 14.6162 6.79994 14.7307 6.79994 14.85V17.55C6.79994 17.6693 6.84724 17.7838 6.93178 17.8682C7.01616 17.9528 7.13069 18.0001 7.25 18.0001H11.7501C11.8694 18.0001 11.9839 17.9528 12.0683 17.8682C12.1526 17.7838 12.2001 17.6693 12.1999 17.55V14.85C12.2001 14.7307 12.1526 14.6162 12.0683 14.5318C11.9839 14.4472 11.8694 14.3999 11.7501 14.3999H9.95V10.8H11.7501C11.8694 10.8 11.9839 10.7527 12.0683 10.6683C12.1526 10.5838 12.2001 10.4694 12.1999 10.3499V9.45H15.8001V10.8H14.4501C14.3306 10.8 14.2162 10.8473 14.1317 10.9317C14.0473 11.0162 14 11.1306 14 11.2501V13.9501C14 14.0694 14.0473 14.1839 14.1317 14.2683C14.2162 14.3526 14.3306 14.4001 14.4501 14.3999H18.05C18.1693 14.4001 18.2838 14.3526 18.3682 14.2683C18.4528 14.1839 18.5001 14.0694 18.5001 13.9501V11.2501C18.5001 11.1306 18.4528 11.0162 18.3682 10.9317C18.2838 10.8473 18.1693 10.8 18.05 10.8ZM6.79994 0.899945H12.1999V3.59994H6.79994V0.899945ZM4.09994 13.5H1.39995V11.6999H4.09994V13.5ZM11.3 17.0999H7.70005V15.3001H11.3V17.0999ZM11.3 9.90005H7.70005V8.1H11.3V9.90005ZM17.5999 13.5H14.8999V11.6999H17.5999V13.5Z" fill="#A9AEB4"/>
</g>
<defs>
<clipPath id="clip0_7442_1218">
<rect width="18" height="18" fill="#A9AEB4" transform="translate(0.5)"/>
</clipPath>
</defs>
</svg>
