<svg width="22" height="22" viewBox="0 0 22 22" fill="none" xmlns="http://www.w3.org/2000/svg">
<path d="M4.10352 4.4687H17.8535C18.0141 4.46862 18.1746 4.47881 18.3339 4.4992C18.2799 4.12012 18.1497 3.7559 17.9511 3.4285C17.7526 3.10111 17.4897 2.81731 17.1785 2.59423C16.8673 2.37115 16.5141 2.2134 16.1403 2.1305C15.7665 2.0476 15.3797 2.04126 15.0034 2.11186L3.69531 4.04245H3.68242C2.97261 4.17818 2.34139 4.57978 1.9177 5.16522C2.55604 4.71118 3.32017 4.46768 4.10352 4.4687ZM17.8535 5.49994H4.10352C3.37441 5.50074 2.6754 5.79073 2.15985 6.30628C1.6443 6.82183 1.35431 7.52084 1.35352 8.24995V16.4999C1.35431 17.229 1.6443 17.9281 2.15985 18.4436C2.6754 18.9592 3.37441 19.2491 4.10352 19.2499H17.8535C18.5826 19.2491 19.2816 18.9592 19.7972 18.4436C20.3127 17.9281 20.6027 17.229 20.6035 16.4999V8.24995C20.6027 7.52084 20.3127 6.82183 19.7972 6.30628C19.2816 5.79073 18.5826 5.50074 17.8535 5.49994ZM15.8125 13.7499C15.5406 13.7499 15.2747 13.6693 15.0486 13.5182C14.8225 13.3671 14.6462 13.1524 14.5422 12.9011C14.4381 12.6499 14.4109 12.3734 14.4639 12.1067C14.517 11.84 14.6479 11.595 14.8402 11.4027C15.0325 11.2104 15.2775 11.0794 15.5443 11.0264C15.811 10.9733 16.0874 11.0005 16.3387 11.1046C16.5899 11.2087 16.8047 11.3849 16.9558 11.611C17.1069 11.8372 17.1875 12.103 17.1875 12.3749C17.1875 12.7396 17.0426 13.0894 16.7848 13.3472C16.5269 13.6051 16.1772 13.7499 15.8125 13.7499Z" fill="white"/>
<path d="M1.375 11.1504V6.875C1.375 5.94387 1.89062 4.38281 3.68027 4.04465C5.19922 3.75977 6.70312 3.75977 6.70312 3.75977C6.70312 3.75977 7.69141 4.44727 6.875 4.44727C6.05859 4.44727 6.08008 5.5 6.875 5.5C7.66992 5.5 6.875 6.50977 6.875 6.50977L3.67383 10.1406L1.375 11.1504Z" fill="white"/>
</svg>
